# xmcd CD database file
#
# Track frame offsets:
#	150
#	2250
#	13950
#	25725
#	35175
#	47775
#	59775
#	75450
#	91875
#	105021
#	119946
#	128946
#	136746
#	145821
#
# Disc length: 2145 seconds
#
# Revision: 0
# Processed by: cddbd v1.5.2PL0 Copyright (c) Steve Scherf et al.
# Submitted via: CDex 1.51
#
DISCID=b8085f0e
DTITLE=Marc Beziat - Victory of the Spirit
DYEAR=2008
DGENRE=New Age
TTITLE0=Prelude The Forces
TTITLE1=Crossroads
TTITLE2=The Yearning of the Soul
TTITLE3=Inner Work
TTITLE4=The First Steps
TTITLE5=Dance of Eternity
TTITLE6=Beyond the Cycles
TTITLE7=Desert and Hope
TTITLE8=The Thresholds
TTITLE9=The Decision
TTITLE10=Perseverance
TTITLE11=The Coronation
TTITLE12=Spirit of Freedom
TTITLE13=Transition Deliverance
EXTD=YEAR: 2008
EXTT0=
EXTT1=
EXTT2=
EXTT3=
EXTT4=
EXTT5=
EXTT6=
EXTT7=
EXTT8=
EXTT9=
EXTT10=
EXTT11=
EXTT12=
EXTT13=
PLAYORDER=
